solid bhiv_spec_edaa96b8d1eb_35abe6433a392da9
  facet normal 0.000000 0.000000 1.000000
    outer loop
      vertex 0.000000 0.000000 0.000000
      vertex 12.000000 0.000000 0.000000
      vertex 12.000000 18.000000 0.000000
    endloop
  endfacet
  facet normal 0.000000 0.000000 1.000000
    outer loop
      vertex 0.000000 0.000000 0.000000
      vertex 12.000000 18.000000 0.000000
      vertex 0.000000 18.000000 0.000000
    endloop
  endfacet
  facet normal 0.000000 0.000000 1.000000
    outer loop
      vertex 0.000000 0.000000 3.000000
      vertex 12.000000 0.000000 3.000000
      vertex 12.000000 18.000000 3.000000
    endloop
  endfacet
  facet normal 0.000000 0.000000 1.000000
    outer loop
      vertex 0.000000 0.000000 3.000000
      vertex 12.000000 18.000000 3.000000
      vertex 0.000000 18.000000 3.000000
    endloop
  endfacet
  facet normal 0.000000 -1.000000 0.000000
    outer loop
      vertex 0.000000 0.000000 0.000000
      vertex 12.000000 0.000000 0.000000
      vertex 12.000000 0.000000 3.000000
    endloop
  endfacet
  facet normal 0.000000 -1.000000 0.000000
    outer loop
      vertex 0.000000 0.000000 0.000000
      vertex 12.000000 0.000000 3.000000
      vertex 0.000000 0.000000 3.000000
    endloop
  endfacet
  facet normal 1.000000 0.000000 0.000000
    outer loop
      vertex 12.000000 0.000000 0.000000
      vertex 12.000000 18.000000 0.000000
      vertex 12.000000 18.000000 3.000000
    endloop
  endfacet
  facet normal 1.000000 0.000000 0.000000
    outer loop
      vertex 12.000000 0.000000 0.000000
      vertex 12.000000 18.000000 3.000000
      vertex 12.000000 0.000000 3.000000
    endloop
  endfacet
  facet normal 0.000000 1.000000 0.000000
    outer loop
      vertex 12.000000 18.000000 0.000000
      vertex 0.000000 18.000000 0.000000
      vertex 0.000000 18.000000 3.000000
    endloop
  endfacet
  facet normal 0.000000 1.000000 -0.000000
    outer loop
      vertex 12.000000 18.000000 0.000000
      vertex 0.000000 18.000000 3.000000
      vertex 12.000000 18.000000 3.000000
    endloop
  endfacet
  facet normal -1.000000 0.000000 0.000000
    outer loop
      vertex 0.000000 18.000000 0.000000
      vertex 0.000000 0.000000 0.000000
      vertex 0.000000 0.000000 3.000000
    endloop
  endfacet
  facet normal -1.000000 0.000000 0.000000
    outer loop
      vertex 0.000000 18.000000 0.000000
      vertex 0.000000 0.000000 3.000000
      vertex 0.000000 18.000000 3.000000
    endloop
  endfacet
endsolid bhiv_spec_edaa96b8d1eb_35abe6433a392da9
